<svg xmlns="http://www.w3.org/2000/svg" xml:space="preserve" id="AtomicBrain" x="0" y="0" enable-background="new 0 0 68 68" version="1.1" viewBox="0 0 68 68">
  <g id="_x32_8" fill="#7A6AA5" class="color000000 svgShape">
    <path fill="#f9d485" d="M30.8,50.9c-2.4,1.9-4.2,4.6-4.8,7.6c-0.1,0.3-0.2,0.5-0.4,0.7l0,0c-0.3,0.2-0.6,0.3-1,0.3
				c-0.8,0-2.2,0-2.6-1c-0.2-0.3-0.1-0.9,0-1.3c0.7-2.5,1.7-4.9,3.1-7.1c1-1.5,1-4.3,0.9-6.1c0-0.2,0-0.3-0.1-0.5
				c3.5,0.7,7.2,1.2,10.7,0.9C36.6,48,33.7,50.7,30.8,50.9z" class="colorf98b85 svgShape"></path>
    <path fill="#fad890" d="M35.9,46.3c-8.4,4.2-10.5,5.5-13.5,5.7c-3.9,0.2-7.9-2-9.3-6.4c-0.3-0.9-1.2-2.7-0.6-3.5c0.5-1,2-1,3.1-0.8
				c8.5,0.8,8.5,2.5,13.4,4.1C31.1,46,33.5,46.2,35.9,46.3z" class="colorfa9990 svgShape"></path>
    <path fill="#ffe3a9" d="M60.1,40.7c-0.3,0.2-0.6,0.5-0.7,0.9c-1,2.4-3.6,3.8-6.3,3c-0.7-0.2-1.4,0.1-1.8,0.6
				c-4,5.1-11.3,5.8-16.2,1.7c-0.5-0.5-1.3-0.5-1.9-0.2c-2.4,1.3-5.3,1.5-7.8,0.5c-1-0.4-2-1-3-1.4c-2.5-1.1-3.6-0.4-5.7-0.5
				c-2.4-0.1-4.8-2.3-5.9-4.3c-0.9-1.7-1.1-3.9-0.6-5.7c0.2-0.6,0.8-1.1,0.7-1.7c0-0.5-0.4-1.1-0.4-1.7c-0.2-1.9,0.5-3.8,1.9-5.1
				c0.9-0.8,2.1-1.4,2.7-2.5c0.9-1.6,0.2-3.1,3.2-4.9c0.9-0.5,1.7-1.4,2.8-0.9c0.9-2,3-2.7,5-3.1c5.3-1.2,10.9-2.5,15.8,0.5
				c0.4,0.3,1,0.4,1.5,0.2c4.1-1.5,8.7,0.9,9.6,5.5c0.1,0.7,0.7,1.3,1.4,1.4c0.8,0.2,1.8,0.4,1.9,0.4c2.4,0.9,5.3,3.4,6.6,7
				C64.3,34.9,62.9,38.9,60.1,40.7z" class="color7A6AA5 svgShape"></path>
    <path fill="#7A6AA5" d="M27.8 29.5c-.6-1-.3-2.2-.8-2.8-.5-.5-1.7-.2-2.7-.6-1.2-.5-1.6-1.8-1.8-2.5-.2-.9-.2-1.8-.5-2.6-.2-.6-.8-1.4-1.5-1.3-.2 0-.5-.2-.5-.5 0-1 2.2-.6 3 1.4.6 1.5.2 4 1.7 4.6.8.3 2.1 0 3 .8.9.9.6 2.2 1 3 .7 1.2 3.4.7 4.3-.1.3-.3.6-.9.4-1.3-.4-1-2.6-.8-3.5-2.1-1.1-1.7.8-3.8.1-5.1-.3-.6-1.1-1.1-1-2 .1-1.3 1.6-1.7 2-2.4.1-.2.1-.5 0-.5-.4-.2-.4-.8 0-.9l.5-.2c.5-.2.9.5.5.9 0 0 0 0 0 0 .1.4.1.9-.1 1.3-.5.9-1.8 1.2-1.9 1.9 0 .3.2.5.4.8.2.2.4.5.5.8.8 1.8-1 3.8-.2 5 .7 1 2.9.7 3.6 2.3.3.8.1 1.8-.6 2.4C32.4 30.8 28.9 31.4 27.8 29.5zM37.5 41.9c-.7-.4-1.2-1.2-1.3-2.1-.4-3.1 2.9-3 3.3-4.4.2-.6-.2-1.2-.7-1.8-1.3-2-1.3-2.9.4-5.1.1-.1 1.4-1.6.8-2.6-.6-1.2-3.9-1.5-1.4-5.5.5-.8.9-1.8.5-2.4-.2-.2-.1-.5.1-.7.2-.2.5-.1.7.1.7.9.5 2.1-.4 3.6-2.1 3.4.5 2.8 1.4 4.6.5 1 .2 2.2-.8 3.5L40.1 29c-1.5 1.9-1.4 2.4-.3 3.9.5.8 1.1 1.6.8 2.7-.4 1.4-2.1 1.7-2.8 2.5-.8.8-.6 2.3.4 2.9.2.1.3.5.2.7C38.1 41.9 37.8 42 37.5 41.9z" class="colorf48c87 svgShape"></path>
    <path fill="#7A6AA5" d="M40.3 25.1c.2-.2.5-.2.7 0 .3.3.8.2 1.1 0 .9-.6 1.4-2.1 2.6-2.8 1-.6 2.1-.5 3.1-.6.8-.1 1.7-.5 1.7-1.2 0-.3.3-.5.5-.5 1 0 .5 2.4-2.1 2.7-.3 0-.6 0-.8.1-1.7.1-2.1.3-3 1.6-.4.5-.8 1.2-1.4 1.6C41.2 26.9 39.6 25.7 40.3 25.1zM30.6 35.6c-1.6 0-2.8-1.1-3.9-2.2-.2-.2-.2-.5 0-.7.2-.2.5-.2.7 0 .6.6 1.2 1.2 1.9 1.6.7.4 1.5.4 2.1.2.6-.3 1.1-.9 1.9-1.1 1.9-.6 3.3 1.5 6.6.9.3-.1.5.1.6.4.1.3-.1.5-.4.6-3.5.7-5-1.3-6.5-.9C32.7 34.5 32.2 35.6 30.6 35.6zM51.4 44.9c-2.6-1.6-2.7-2.9-2.1-5 1-3.3-.9-2.3-2-3.4-.8-.8-.6-2.1-.5-2.7.1-.3.3-.4.6-.4.3.1.4.3.4.6-.5 2.6.8 1.8 2 2.6.7.6 1 1.7.7 2.9-.5 1.9-1.1 2.8 1.5 4.5C52.5 44.4 51.9 45.2 51.4 44.9zM55 36c.1-1.2.8-2.5-1.8-2.2-.3 0-.5-.2-.6-.4s.2-.5.4-.6c.9-.1 2.2-.2 2.8.9.5.8.1 1.7.1 2.4-.1 1.6 1.3 2.8 2.8 2.6.7-.1.8.9.2 1C56.7 40 54.8 38.2 55 36z" class="colorf48c87 svgShape"></path>
    <path fill="#7A6AA5" d="M54.8 33.7c-.2-.2-.1-.5.1-.7 2.4-1.6.4-2 0-3.5-.6-1.7 1.2-3 1.2-4.3 0-.3.2-.5.5-.5.3 0 .5.2.5.5 0 1.6-1.6 2.8-1.3 4 .3.9 2.9 2.4-.3 4.7C55.3 34 55 33.9 54.8 33.7zM46.5 40.9c-.6-.6-1.1-1.2-1.7-1.2-1.4-.1-2.4 2.4-5.6.9-.9-.4-1.7-1.1-2.5-1.7-.2-.2-.2-.5-.1-.7.2-.2.5-.2.7-.1.7.6 1.4 1.2 2.2 1.5 2.8 1.3 3.3-1.2 5.3-1 .9.1 1.5.7 2 1.2l.3.3c.5.4 1.2.8 1.6.5.2-.2.5-.1.7.1C50 41.6 48.2 42.5 46.5 40.9zM43.9 49.7c-.5-.2-1.1-.5-1.6-.9-.6-.5-.8-1.3-.7-1.9.1-.6.5-1 .7-1.3.5-.8.3-2-.5-2.5-.2-.2-.2-.5-.1-.7.2-.2.5-.2.7-.1 1.1.9 1.4 2.6.7 3.8-.3.4-.6.7-.6 1-.1.3.1.7.4 1 .3.3.8.5 1.3.7C44.9 49 44.5 49.9 43.9 49.7zM20.9 46.1c-.7-1.2-.4-2.8.7-3.6.9-.7 2.1-.7 3.2-.8 2.9-.2 2.1-1.5 3-2.5 1.3-1.3 3.6.1 4.4-.8.2-.2.5-.2.7 0 .2.2.2.5 0 .7-1.2 1.4-3.6 0-4.4.8-.6.6-.2 2.6-3.7 2.8-.9.1-2 .1-2.6.6-.7.5-.9 1.6-.4 2.3.1.2.1.5-.2.7C21.3 46.4 21 46.3 20.9 46.1zM34.8 47.2l-1.2-2c-1-1.7-.7-2.4.1-3.3.1-.1.2-.2.2-.3.2-.2.2-.5.2-.6-.2-.2-.1-.5.1-.7.6-.4 1.4.7.5 1.9-.3.3-.6.6-.7.9-.2.6.4 1.4 1.6 3.6.1.2.1.5-.2.7C35.3 47.6 35 47.5 34.8 47.2zM19.6 39.6c-.8-3.4 1.8-4.9 1.3-5.9-.2-.4-.8-.4-1.4-.5-.8 0-1.7 0-2.3-.6-1.2-1.2 0-3.1.1-3.2.3-.6.6-1.2.5-1.8-.1-.5-.6-.9-1.1-1.1-.6-.2-1.3-.2-1.9-.2-.3 0-.5-.2-.5-.5 0-.3.2-.5.5-.5.8 0 1.5 0 2.3.3.9.3 1.6 1 1.7 1.8.2.9-.2 1.7-.6 2.4l-.1.3c-.1.3-.6 1.3-.1 1.8.3.3.9.3 1.5.3.9 0 1.9.2 2.3 1 1 1.9-2 2.9-1.2 6.1.1.3-.1.5-.4.6C19.9 40 19.7 39.8 19.6 39.6zM16.3 41.6c-1-.6-.8-1-2-.4-.4.2-1 .5-1.5.4-1.1-.1-1.7-1.3-1.6-2.4.1-.9.4-1.7.4-2.4 0-.5-.4-1.3-.9-1.2-.3 0-.5-.2-.5-.5-.1-1.1 2.4-.6 2.4 1.7 0 .9-.4 1.7-.4 2.5 0 .6.3 1.3.8 1.4.3 0 .6-.1 1-.3 1.1-.6 1.7-.7 2.6.1.1.1.2.2.4.3.2.1.4.1.4 0 0-.3.3-.4.6-.4.6.1.5 1-.2 1.3C17.3 41.9 16.7 41.9 16.3 41.6z" class="colorf48c87 svgShape"></path>
    <path fill="#7A6AA5" d="M21.7 33.4c-.9 0-1.4-.8-.9-1.2.2-.2.5-.1.7.1 0 0 .1.1.2.1.8.1 1-1.2 1.5-1.9.6-.8 1.6-1.2 2.5-1.2.3 0 .5.3.5.5 0 .3-.3.5-.5.5-.6 0-1.3.3-1.6.8-.4.5-.5 1.1-.9 1.7C22.7 33.2 22.1 33.4 21.7 33.4zM31.7 21.2c-.6-.1-1.1-.4-1.5-.6-.2-.1-.3-.4-.2-.7s.4-.3.7-.2c.4.2.8.4 1.2.5.3.1.7 0 .9-.2.2-.2.7-1.3 2.2-.7.4.2.7.4 1.1.5.2 0 .5 0 .5-.1.1-.3.4-.4.6-.3.8.3 0 1.7-1.3 1.4-.7-.2-1.5-.9-2-.6C33.7 20.3 33.3 21.4 31.7 21.2zM39.3 29.4c.2-.1.5 0 .7.2.4.7 1.5 1.1 2.2.7.6-.3 1-.9 1.5-1.5.7-.6 1.7-1.2 2.6-.7.7.3 1 1.2 1.5 1.4.4.2.9 0 1.2-.2.4-.3.7-.8 1-1.3.1-.2.4-.3.7-.2.2.1.3.4.2.7-.3.5-.7 1.2-1.3 1.6-.7.5-1.6.6-2.3.3-.7-.4-1-1.2-1.4-1.4-.4-.2-1.1.1-1.5.5-.5.5-1 1.2-1.8 1.7C40.6 32.2 38.3 29.9 39.3 29.4zM61.3 32.4c-.3-.1-.4-.3-.4-.6 0 0-.3-.1-.4-.1-.8.3-1.8 1.7-4.1-.5-.2-.2-.2-.5 0-.7.2-.2.5-.2.7 0 1.7 1.7 1.9.6 3.1.3.9-.3 1.9.4 1.7 1.3C61.9 32.2 61.6 32.4 61.3 32.4z" class="colorf48c87 svgShape"></path>
    <g fill="#7A6AA5" class="color000000 svgShape">
      <path d="M11.8,35.7c-3.4-2.3-3-7.4,0.6-9.3c0.8-0.4,1.7-0.6,2.2-1.2c0.6-0.8,0.4-2.1,0.6-3.3c0.4-2.5,3.1-4.2,5.5-3.7
				c0.3,0.1,0.4,0.3,0.4,0.6c-0.1,0.3-0.3,0.4-0.6,0.4c-1.9-0.4-4,1-4.3,2.9c-0.1,0.4-0.1,0.7-0.1,1.1c-0.1,2.3-0.5,3-2.5,3.8
				c-0.2,0.1-0.5,0.2-0.7,0.3c-3,1.5-3.2,5.7-0.5,7.5c0.2,0.2,0.3,0.5,0.1,0.7C12.4,35.8,12.1,35.9,11.8,35.7z" fill="#7A6AA5" class="color000000 svgShape"></path>
    </g>
    <g fill="#7A6AA5" class="color000000 svgShape">
      <path d="M25.5,59.3L25.5,59.3c-0.3,0.2-0.6,0.4-1,0.3c-0.8,0-2.2,0-2.6-1c0.7-0.7,2.5-0.1,3.1,0.1C25.3,58.8,25.6,59,25.5,59.3z" fill="#7A6AA5" class="color000000 svgShape"></path>
    </g>
    <g fill="#7A6AA5" class="color000000 svgShape">
      <path fill="#fcc349" d="M55.9,57.2c-8.9,0-22-8.9-29.3-15.1c-6.2-5.2-11.5-11.1-15-16.4c-4.7-7.1-5.9-12.6-3.4-15.6
				c3.6-4.2,13.3-0.3,18.3,2.1c1.2,0.6,2.6,1.2,3.6,2.1c0.1,0.1,0.1,0.2-0.1,0.2c-1.4,0.4-2.4,0.7-3.8-0.2c-3.9-2-13.8-6.2-16.6-3
				c-1.9,2.2-0.5,7.1,3.5,13.2c5.1,7.6,13.2,15.3,20.9,20.9c11.6,8.3,22.6,11.9,25.5,8.4c1.7-2,0.5-5.7-0.6-8
				c-0.4-1-1.7-2.4-0.8-3.5c1.2-1.5,2.2,1.5,2.6,2.4C64.7,53.4,61.3,57.2,55.9,57.2z" class="colorfc4949 svgShape"></path>
    </g>
    <g fill="#7A6AA5" class="color000000 svgShape">
      <ellipse cx="57.8" cy="56.2" fill="#efbe57" rx="4.8" ry="5.1" transform="rotate(-88.204 57.835 56.232)scale(.99999)" class="color5762ef svgShape"></ellipse>
    </g>
    <g fill="#7A6AA5" class="color000000 svgShape">
      <ellipse cx="8.4" cy="16.9" fill="#ffcc5f" rx="4" ry="3.8" transform="rotate(-88.296 8.408 16.906)scale(1.00004)" class="colorffd55f svgShape"></ellipse>
    </g>
    <g fill="#7A6AA5" class="color000000 svgShape">
      <path d="M50.3,13.9c-0.3,0-0.5-0.3-0.4-0.6l0.8-6c0.1-0.7,1.1-0.5,1,0.1l-0.8,6C50.8,13.7,50.6,13.9,50.3,13.9z" fill="#7A6AA5" class="color000000 svgShape"></path>
    </g>
    <g fill="#7A6AA5" class="color000000 svgShape">
      <path d="M53,14.7c-0.2-0.2-0.3-0.5-0.1-0.7l2.8-3.6c0.2-0.2,0.5-0.3,0.7-0.1c0.2,0.2,0.3,0.5,0.1,0.7l-2.8,3.6
				C53.5,14.9,53.2,14.9,53,14.7z" fill="#7A6AA5" class="color000000 svgShape"></path>
    </g>
    <g fill="#7A6AA5" class="color000000 svgShape">
      <path d="M55.4,17.4c-0.1-0.3,0.1-0.5,0.4-0.6l3.8-0.9c0.3-0.1,0.5,0.1,0.6,0.4c0.1,0.3-0.1,0.5-0.4,0.6L56,17.7
				C55.8,17.8,55.5,17.6,55.4,17.4z" fill="#7A6AA5" class="color000000 svgShape"></path>
    </g>
    <g fill="#7A6AA5" class="color000000 svgShape">
      <path d="M56.5,44.4c-0.1-0.2-0.1-0.5,0.2-0.7c1.3-0.7,2.1-2.2,2-3.7c0-0.3,0.2-0.5,0.5-0.5c3.4-0.2,4.7-7.1,1.1-11.6
				c-1.7-2.2-4.4-3.6-7.2-3.8c-0.3,0-0.5-0.3-0.5-0.6c0.5-1.9-0.7-4.2-2.2-5.3c-2.9-2.1-7.9-1.8-10,0c-0.2,0.2-0.5,0.1-0.7-0.1
				c-0.2-0.2-0.1-0.5,0.1-0.7c2.5-2,8-2.3,11.2,0c1.6,1.2,3,3.6,2.7,5.8c2.9,0.3,5.6,1.8,7.4,4.1c3.8,4.9,2.7,12.3-1.4,13.2
				c-0.1,1.7-1,3.3-2.5,4.1C57,44.7,56.7,44.7,56.5,44.4z" fill="#7A6AA5" class="color000000 svgShape"></path>
    </g>
  </g>
</svg>
