<svg xmlns="http://www.w3.org/2000/svg" viewBox="0 0 64 64" id="Collaborate">
  <path d="M22.57 24.59h-.08a2.48 2.48 0 0 1-1.65-.71c-.95-.93-1.02-2.42-.14-3.32l1.77-1.82c.41-.42.97-.66 1.57-.66h.03c.63 0 1.26.26 1.73.72.95.93 1.01 2.42.13 3.33-.37.38-.99.39-1.37.02a.975.975 0 0 1-.02-1.37c.11-.12.1-.39-.1-.58a.565.565 0 0 0-.38-.16.28.28 0 0 0-.21.08l-1.77 1.82c-.11.12-.1.39.1.58.1.1.23.16.36.16.07 0 .16-.01.23-.08.37-.38.99-.39 1.37-.02.38.37.39.99.02 1.37-.41.41-.98.64-1.59.64z" fill="#c8a04b" class="color000000 svgShape"></path>
  <path d="M24.6 26.61c-.61 0-1.19-.24-1.64-.67l-.1-.1c-.93-.9-.95-2.39-.04-3.32l2.33-2.39c.44-.45 1.02-.7 1.65-.71.66-.02 1.22.23 1.67.67l.11.1c.92.9.94 2.39.04 3.32l-2.33 2.39c-.44.45-1.02.7-1.65.71h-.04zm2.23-5.24c-.02-.01-.18.02-.29.12l-2.33 2.39c-.16.16-.15.42.01.57l.1.1c.16.16.42.15.57-.01l2.33-2.39a.41.41 0 0 0-.01-.58l-.1-.1c-.1-.08-.22-.1-.28-.1z" fill="#c8a04b" class="color000000 svgShape"></path>
  <path d="M26.87 28.45c-.6 0-1.2-.23-1.67-.68-1-.98-1.04-2.47-.14-3.38.38-.38.99-.39 1.37-.02.38.37.39.99.02 1.37-.15.15-.13.41.04.57.24.23.49.24.64.09l2.05-2.1c.09-.09.1-.19.1-.26s-.02-.2-.14-.31c-.19-.18-.36-.2-.38-.2-.07 0-.17.02-.26.11-.37.38-.99.39-1.37.02a.975.975 0 0 1-.02-1.37c.44-.45 1.03-.74 1.66-.69.62 0 1.21.25 1.66.69.52.5.77 1.09.79 1.7.02.63-.21 1.23-.65 1.68l-2.05 2.1c-.45.45-1.05.68-1.65.68z" fill="#c8a04b" class="color000000 svgShape"></path>
  <path d="M29.15 29.83c-.56 0-1.12-.21-1.55-.63-.48-.46-.72-1-.73-1.58-.02-.59.2-1.14.6-1.56.24-.25.58-.34.89-.27-.07-.31.01-.65.25-.9.4-.41.95-.64 1.53-.64h.01c.57 0 1.12.23 1.54.64.48.46.71 1 .73 1.58.02.59-.2 1.14-.6 1.56l-1.14 1.17c-.41.42-.97.63-1.53.63zm-.04-3.31c.07.31-.01.65-.25.9-.05.05-.05.11-.05.15 0 .04.01.12.09.19.16.16.32.17.4.09l1.14-1.17c.05-.05.05-.11.05-.15 0-.04-.01-.12-.09-.19-.14-.14-.23-.16-.26-.14-.04 0-.1.01-.14.06-.24.23-.58.32-.89.26zm9.28-.67c-.48 0-.97-.15-1.39-.45l-4.27-3.12a.973.973 0 0 1 1.15-1.57l4.27 3.12c.18.13.45.1.58-.09.09-.12.09-.25.08-.31a.439.439 0 0 0-.17-.27l-4.27-3.12a.973.973 0 0 1 1.15-1.57l4.27 3.12c.51.37.84.92.94 1.54.1.62-.05 1.25-.43 1.75-.47.63-1.19.97-1.91.97z" fill="#c8a04b" class="color000000 svgShape"></path>
  <path d="M36.14 27.66c-.48 0-.97-.15-1.39-.45l-2.45-2a.968.968 0 0 1-.14-1.36c.34-.41.95-.48 1.36-.14l2.41 1.97c.15.11.41.06.54-.12.14-.19.1-.46-.08-.6a.973.973 0 0 1 1.15-1.57c1.05.77 1.27 2.25.5 3.31-.46.63-1.17.96-1.9.96z" fill="#c8a04b" class="color000000 svgShape"></path>
  <path d="M33.67 29.3c-.48 0-.97-.15-1.38-.45l-1.48-1.13a.96.96 0 0 1-.18-1.36.97.97 0 0 1 1.36-.18l1.47 1.12c.17.13.44.08.58-.11.05-.07.08-.15.08-.24 0-.14-.07-.27-.18-.35a.972.972 0 1 1 1.16-1.56c.6.44.96 1.16.96 1.91 0 .49-.16.98-.45 1.38-.49.64-1.21.97-1.94.97zm6.74-5.43c-.53 0-1.02-.16-1.44-.47l-.33-.24a.963.963 0 0 1-.22-1.35c.31-.44.92-.54 1.35-.22l.34.25c.27.2.48.14.62-.05.09-.12.09-.23.08-.31a.511.511 0 0 0-.19-.31l-8.59-6.13a.645.645 0 0 0-.76 0c-.29.22-.55.49-.78.81-.79 1.1-1.7 1.73-2.7 1.87-1.13.16-2.05-.34-2.62-.79-.63-.51-.72-1.4-.23-2.02.31-.39 1.37-1.76 1.94-2.88 1.1-2.18 3.75-3.25 6.91-2.77.83.13 1.68.36 2.5.59 1.56.43 3.04.85 4.18.47a.977.977 0 0 1 1.23.61.977.977 0 0 1-.61 1.23c-1.7.56-3.53.05-5.31-.44-.8-.22-1.55-.43-2.26-.54-1.8-.28-4.04.03-4.89 1.72-.51.99-1.29 2.09-1.81 2.77.22.1.46.17.73.13.57-.08 1.07-.63 1.4-1.08.34-.47.74-.89 1.18-1.22.9-.68 2.13-.7 3.06-.03l8.6 6.13c.52.38.86.93.97 1.55.11.63-.04 1.26-.42 1.78-.46.58-1.17.94-1.93.94z" fill="#c8a04b" class="color000000 svgShape"></path>
  <path d="M41.68 22a.97.97 0 0 1-.47-1.82c.58-.32 1.72-1.07 2.87-2.49.34-.41.95-.48 1.36-.14.42.34.48.95.14 1.36-1.3 1.6-2.59 2.5-3.44 2.97a.93.93 0 0 1-.46.12zm-20.04-.05c-.2 0-.4-.06-.57-.19-.78-.57-2.06-1.78-2.77-2.76a.975.975 0 0 1 .21-1.36.975.975 0 0 1 1.36.21c.6.83 1.77 1.92 2.35 2.34a.973.973 0 0 1-.58 1.76z" fill="#c8a04b" class="color000000 svgShape"></path>
  <path d="M45.54 20.48c-.08 0-.17-.01-.25-.03a.992.992 0 0 1-.59-.45l-5.48-9.5a.958.958 0 0 1 .36-1.32l3.16-1.83c.22-.13.49-.16.74-.1.25.07.46.23.59.45l5.48 9.5c.27.46.11 1.06-.35 1.32l-3.16 1.83c-.17.08-.33.13-.5.13zm-4.16-10.11 4.51 7.82 1.48-.86-4.51-7.82-1.48.86zM18.46 20.48c-.17 0-.34-.04-.48-.13l-3.16-1.83a.978.978 0 0 1-.36-1.32l5.48-9.5c.13-.22.34-.39.59-.45.25-.07.51-.03.74.1l3.16 1.83c.46.27.62.86.36 1.32L19.31 20a.955.955 0 0 1-.85.48zm-1.84-3.15 1.48.86 4.51-7.82-1.48-.86-4.51 7.82z" fill="#c8a04b" class="color000000 svgShape"></path>
  <path d="M27.31 13.02a9.07 9.07 0 0 1-4.43-1.15.967.967 0 0 1-.37-1.32c.26-.47.85-.63 1.32-.37.85.48 2.25 1.03 4.08.88.56-.05 1 .36 1.04.89.04.53-.36 1-.89 1.04-.25.02-.5.03-.75.03z" fill="#c8a04b" class="color000000 svgShape"></path>
  <path d="M32 40.92c-.18 0-.35-.05-.51-.14-12.47-7.7-20.88-17.96-21.94-26.8-.48-4.01.63-7.5 3.2-10.1C15.3 1.3 18.67-.08 22.29 0c3.58.08 6.99 1.57 9.71 4.23C34.72 1.58 38.13.08 41.71 0c3.6-.08 6.98 1.29 9.54 3.87 2.57 2.6 3.68 6.09 3.2 10.1-1.06 8.83-9.46 19.1-21.94 26.8-.16.1-.33.15-.51.15zM21.99 1.94c-2.96 0-5.75 1.17-7.86 3.3-2.17 2.19-3.06 5.05-2.65 8.51.97 8.14 8.82 17.71 20.52 25.06 11.7-7.35 19.55-16.92 20.52-25.06.41-3.45-.48-6.32-2.65-8.51-2.17-2.2-5.04-3.38-8.11-3.3-3.37.07-6.58 1.62-9.04 4.34-.19.2-.45.32-.72.32-.27 0-.53-.12-.72-.32-2.46-2.72-5.67-4.26-9.04-4.34h-.25zM55.25 49.09c-.07 0-1.77-.01-3.49-.58a.969.969 0 0 1-.61-1.23c.17-.51.72-.78 1.23-.61 1.41.47 2.86.48 2.87.48.53 0 .97.44.97.97s-.43.97-.97.97z" fill="#c8a04b" class="color000000 svgShape"></path>
  <path d="M42.5 64h-21c-.27 0-.54-.12-.72-.32a.975.975 0 0 1-.24-.75c.15-1.45-.29-2.83-1.22-3.78a3.73 3.73 0 0 0-3.01-1.12l-.82.06c-1.62.13-2.9.23-4.35-.08-.97-.2-1.72-.71-2.18-1.48-.84-1.41-.4-3.22-.24-3.74.14-.44.06-.76.01-.9-.74-.68-1.18-1.3-1.37-1.9-.13-.38-.11-.83.06-1.25l.12-.27-.37-.25c-.57-.43-.83-1.05-.77-1.69.12-.93.12-1.85.1-2.47-.56-.13-1.35-.35-2.08-.68-.43-.2-.73-.55-.87-1-.44-1.4.79-3.69 2.59-6.78.28-.48.54-.92.75-1.32.47-.85.46-1.82-.02-2.88-.81-1.79-1.21-3.59-1.19-5.36.06-2.94.87-7.29 4.37-11.34.35-.41.96-.45 1.37-.1.41.35.45.96.1 1.37a15.763 15.763 0 0 0-3.89 10.1c-.02 1.48.33 3 1.02 4.53.51 1.13.91 2.85-.05 4.61-.22.4-.49.86-.77 1.35-.74 1.27-2.42 4.18-2.42 5.11 1.02.43 2.19.62 2.2.62.44.07.77.43.81.87.01.07.15 1.75-.06 3.49l.96.63c.39.26.54.77.35 1.2l-.42.95c.07.17.28.53.94 1.12.06.05.11.11.16.18.07.11.71 1.11.26 2.6-.19.64-.3 1.6.05 2.18.11.19.33.45.91.57 1.19.25 2.28.17 3.8.05l.83-.06c1.75-.14 3.35.47 4.55 1.71 1.09 1.12 1.72 2.64 1.79 4.26H41.5c.07-1.63.7-3.14 1.79-4.27 1.2-1.23 2.81-1.84 4.55-1.71l.82.06c1.52.12 2.62.21 3.8-.04.6-.12.81-.39.93-.58.33-.55.26-1.49.05-2.17-.45-1.49.19-2.49.26-2.6.04-.07.1-.13.16-.18.68-.61.88-.97.94-1.11l-.42-.95a.967.967 0 0 1 .36-1.2l.96-.63c-.21-1.74-.07-3.42-.06-3.5.04-.44.37-.8.81-.87.01 0 1.17-.19 2.2-.62 0-.94-1.7-3.87-2.45-5.16-.27-.47-.53-.91-.75-1.3-.97-1.76-.56-3.48-.06-4.61.7-1.55 1.05-3.07 1.02-4.54-.05-2.61-.77-6.49-3.89-10.1a.968.968 0 0 1 .1-1.37.968.968 0 0 1 1.37.1c3.5 4.05 4.31 8.39 4.37 11.33.03 1.76-.37 3.57-1.19 5.37-.47 1.06-.48 2.03-.01 2.88.21.37.46.8.72 1.26 1.81 3.11 3.05 5.42 2.61 6.83-.14.45-.44.8-.86.99-.74.33-1.54.55-2.1.69-.02.61-.02 1.53.1 2.44.07.66-.19 1.27-.69 1.66l-.45.3.11.26c.18.44.2.89.06 1.3-.18.56-.63 1.19-1.37 1.87-.04.12-.12.44.01.89.16.51.61 2.3-.23 3.72-.46.77-1.22 1.29-2.2 1.49-1.44.31-2.73.21-4.35.08l-.82-.06c-1.15-.08-2.22.31-3.01 1.12-.93.95-1.37 2.33-1.22 3.78.03.27-.06.55-.24.75-.19.24-.45.36-.73.36zm12.3-14.58zm-45.61-.03z" fill="#c8a04b" class="color000000 svgShape"></path>
  <path d="M8.75 49.09a.97.97 0 0 1 0-1.94c.02 0 1.46-.01 2.87-.48.51-.17 1.06.1 1.23.61.17.51-.1 1.06-.61 1.23-1.73.57-3.42.58-3.49.58z" fill="#c8a04b" class="color000000 svgShape"></path>
</svg>
